<svg id="Layer_1" data-name="Layer 1" xmlns="http://www.w3.org/2000/svg" viewBox="0 0 512 512"><defs><style>.cls-1{fill:none;stroke:#666;stroke-linecap:round;stroke-linejoin:round;stroke-width:8.5px;}</style></defs><title>002 Partly Cloudy Night_1</title><path class="cls-1" d="M386,248.59a92.27,92.27,0,0,0,91.14-84.19,71,71,0,0,1-100-100,92.35,92.35,0,0,0-80.5,117.85"/><path class="cls-1" d="M333.41,234.59h-1.78a120.52,120.52,0,0,0-234.72,38.5c0,2.57.09,5.11.25,7.64-35.79,10-62.25,43-62.25,81.86h0a85.25,85.25,0,0,0,85,85h213.5c58.58,0,106.5-47.92,106.5-106.5h0C439.91,282.52,392,234.59,333.41,234.59Z"/></svg>