<svg id="Layer_1" data-name="Layer 1" xmlns="http://www.w3.org/2000/svg" viewBox="0 0 512 512"><defs><style>.cls-1{fill:none;stroke:#666;stroke-linecap:round;stroke-linejoin:round;stroke-width:8.5px}</style></defs><path class="cls-1" d="M348.29 134.06h-1.64a110.57 110.57 0 00-215.34 35.32c0 2.35.08 4.69.23 7a78.28 78.28 0 00-57.11 75.1 78.21 78.21 0 0078 78h195.86c53.74 0 97.71-44 97.71-97.71 0-53.77-44-97.71-97.71-97.71zM259.3 161.15v95.51"/><path class="cls-1" d="M281.61 138.81l-22.31 22.31-22.3-22.31"/><path class="cls-1" d="M281.61 138.81l-22.31 22.31-22.3-22.31M259.3 120.85v19.27M237 279.01l22.3-22.31 22.31 22.31"/><path class="cls-1" d="M237 279.01l22.3-22.31 22.31 22.31M259.3 296.97v-19.28M216.75 187.23l85.1 43.36M206.97 157.21l9.75 30-30 9.75"/><path class="cls-1" d="M206.97 157.21l9.75 30-30 9.75M180.84 168.93l17.17 8.75M311.63 260.61l-9.75-30.01 30-9.74"/><path class="cls-1" d="M311.63 260.61l-9.75-30.01 30-9.74M337.76 248.89l-17.17-8.76M301.85 187.23l-85.1 43.36M331.88 196.96l-30-9.75 9.75-30"/><path class="cls-1" d="M331.88 196.96l-30-9.75 9.75-30M337.76 168.93l-17.17 8.75M186.72 220.86l30 9.74-9.75 30.01"/><path class="cls-1" d="M186.72 220.86l30 9.74-9.75 30.01M180.84 248.89l17.17-8.76M346.87 351v50.17M324.73 365.02L369 387.15M369 365.02l-44.27 22.13M290.05 406.16v50.16M267.92 420.17l44.26 22.14M312.18 420.17l-44.26 22.14M226.61 355.44v50.17M204.48 369.45l44.27 22.14M248.75 369.45l-44.27 22.14M185.21 417.19v50.17M163.08 431.21l44.27 22.14M207.35 431.21l-44.27 22.14M133.13 356.44v50.17M111 370.45l44.27 22.14M155.27 370.45L111 392.59"/></svg>