<svg id="Layer_1" data-name="Layer 1" xmlns="http://www.w3.org/2000/svg" viewBox="0 0 512 512"><defs><style>.cls-1{fill:none;stroke:#666;stroke-linecap:round;stroke-linejoin:round;stroke-width:8.5px;}</style></defs><title>003 Blizzard_1</title><path class="cls-1" d="M348.29,134.06h-1.64a110.57,110.57,0,0,0-215.34,35.32c0,2.35.08,4.69.23,7a78.28,78.28,0,0,0-57.11,75.1h0a78.21,78.21,0,0,0,78,78H348.29c53.74,0,97.71-44,97.71-97.71h0C446,178,402,134.06,348.29,134.06Z"/><line class="cls-1" x1="259.3" y1="161.15" x2="259.3" y2="256.66"/><polyline class="cls-1" points="281.61 138.81 259.3 161.12 237 138.81"/><polyline class="cls-1" points="281.61 138.81 259.3 161.12 237 138.81"/><line class="cls-1" x1="259.3" y1="120.85" x2="259.3" y2="140.12"/><polyline class="cls-1" points="237 279.01 259.3 256.7 281.61 279.01"/><polyline class="cls-1" points="237 279.01 259.3 256.7 281.61 279.01"/><line class="cls-1" x1="259.3" y1="296.97" x2="259.3" y2="277.69"/><line class="cls-1" x1="216.75" y1="187.23" x2="301.85" y2="230.59"/><polyline class="cls-1" points="206.97 157.21 216.72 187.21 186.72 196.96"/><polyline class="cls-1" points="206.97 157.21 216.72 187.21 186.72 196.96"/><line class="cls-1" x1="180.84" y1="168.93" x2="198.01" y2="177.68"/><polyline class="cls-1" points="311.63 260.61 301.88 230.6 331.88 220.86"/><polyline class="cls-1" points="311.63 260.61 301.88 230.6 331.88 220.86"/><line class="cls-1" x1="337.76" y1="248.89" x2="320.59" y2="240.13"/><line class="cls-1" x1="301.85" y1="187.23" x2="216.75" y2="230.59"/><polyline class="cls-1" points="331.88 196.96 301.88 187.21 311.63 157.21"/><polyline class="cls-1" points="331.88 196.96 301.88 187.21 311.63 157.21"/><line class="cls-1" x1="337.76" y1="168.93" x2="320.59" y2="177.68"/><polyline class="cls-1" points="186.72 220.86 216.72 230.6 206.97 260.61"/><polyline class="cls-1" points="186.72 220.86 216.72 230.6 206.97 260.61"/><line class="cls-1" x1="180.84" y1="248.89" x2="198.01" y2="240.13"/><line class="cls-1" x1="346.87" y1="351" x2="346.87" y2="401.17"/><line class="cls-1" x1="324.73" y1="365.02" x2="369" y2="387.15"/><line class="cls-1" x1="369" y1="365.02" x2="324.73" y2="387.15"/><line class="cls-1" x1="290.05" y1="406.16" x2="290.05" y2="456.32"/><line class="cls-1" x1="267.92" y1="420.17" x2="312.18" y2="442.31"/><line class="cls-1" x1="312.18" y1="420.17" x2="267.92" y2="442.31"/><line class="cls-1" x1="226.61" y1="355.44" x2="226.61" y2="405.61"/><line class="cls-1" x1="204.48" y1="369.45" x2="248.75" y2="391.59"/><line class="cls-1" x1="248.75" y1="369.45" x2="204.48" y2="391.59"/><line class="cls-1" x1="185.21" y1="417.19" x2="185.21" y2="467.36"/><line class="cls-1" x1="163.08" y1="431.21" x2="207.35" y2="453.35"/><line class="cls-1" x1="207.35" y1="431.21" x2="163.08" y2="453.35"/><line class="cls-1" x1="133.13" y1="356.44" x2="133.13" y2="406.61"/><line class="cls-1" x1="111" y1="370.45" x2="155.27" y2="392.59"/><line class="cls-1" x1="155.27" y1="370.45" x2="111" y2="392.59"/></svg>