<svg id="Layer_1" data-name="Layer 1" xmlns="http://www.w3.org/2000/svg" viewBox="0 0 512 512"><defs><style>.cls-1{fill:none;stroke:#666;stroke-linecap:round;stroke-linejoin:round;stroke-width:8.5px}</style></defs><path class="cls-1" d="M372.91 244.5c0-20.37-21.73-42.09-42.09-42.09 20.37 0 42.09-21.73 42.09-42.09 0 20.37 21.73 42.09 42.09 42.09-20.37 0-42.09 21.73-42.09 42.09zM317.91 126.5c0-13.11-14-27.09-27.09-27.09 13.11 0 27.09-14 27.09-27.09 0 13.11 14 27.09 27.09 27.09-13.11 0-27.09 13.98-27.09 27.09z"/><path class="cls-1" d="M213.47 193.13A125.37 125.37 0 01242 113.32 163.49 163.49 0 10419.18 290.5a125.9 125.9 0 01-205.71-97.37z"/></svg>