<svg id="Layer_1" data-name="Layer 1" xmlns="http://www.w3.org/2000/svg" viewBox="0 0 512 512"><defs><style>.cls-1{fill:none;stroke:#fff;stroke-linecap:round;stroke-linejoin:round;stroke-width:22px}</style></defs><path class="cls-1" d="M33.49 223.29h47.44M202.57 289.08a66.51 66.51 0 1155.27-70.26M192.16 111.71V64.97M80.04 111.27l33.35 33.35M79.79 335.42l33-33M270.84 144.87l33.35-33.35"/><path class="cls-1" d="M454.17 305.78a82.1 82.1 0 00-58.36-24.26h-1.6a9 9 0 01-8.53-6.12A94.69 94.69 0 00295.9 211h-.06a94.73 94.73 0 00-94.69 94.81c0 1.94.07 3.9.2 6a9 9 0 01-6.55 9.23 64.47 64.47 0 00-47 61.85A64.4 64.4 0 00212 447l183.83-.12a82.59 82.59 0 0058.31-141.13z"/></svg>