<svg id="Layer_1" data-name="Layer 1" xmlns="http://www.w3.org/2000/svg" viewBox="0 0 512 512"><defs><style>.cls-2{fill:none;stroke:#fff;stroke-linecap:round;stroke-linejoin:round;stroke-width:22px}</style></defs><path d="M256.39 320.66a74.23 74.23 0 0174.23 74.23c-35.36-.1-52.64-.15-71-.15s-37.8 0-77.45.15a74.23 74.23 0 0174.23-74.23m0-8.5a82.83 82.83 0 00-82.73 82.73 8.5 8.5 0 008.5 8.5h2.49c37.95-.09 57-.14 75-.14s34.95 0 68.78.14h2.22a8.5 8.5 0 008.5-8.5 82.83 82.83 0 00-82.73-82.73z" fill="#fff"/><path class="cls-2" d="M75.8 403.5h56.75M381.02 403.89h55.18M256.2 270.46V218.5M117.39 269.97l41.37 41.36M354.02 311.64l41.37-41.36M45.5 444.66h421M256 169.7V67.34M284.73 141.75L256 170.48l-28.73-28.73"/></svg>