<svg id="Layer_1" data-name="Layer 1" xmlns="http://www.w3.org/2000/svg" viewBox="0 0 512 512"><defs><style>.cls-1{fill:none;stroke:#666;stroke-linecap:round;stroke-linejoin:round;stroke-width:8.5px}</style></defs><path class="cls-1" d="M191 302.33v-197.7a44.85 44.85 0 00-44.72-44.72 44.85 44.85 0 00-44.72 44.72v197.7a89.71 89.71 0 1089.43 0z"/><path class="cls-1" d="M165.49 338a13 13 0 01-7.55-11.81V107.67A11.66 11.66 0 00146.31 96a11.66 11.66 0 00-11.63 11.63v218.55a13 13 0 01-7.55 11.82 46.31 46.31 0 1038.37 0zM406.4 211.13h49.02M286.46 379.72v-49.77M286.84 91.95V42.17M371.09 295.65l34.77 34.77M370.61 127.25l35.51-35.51M287 282.24a71.1 71.1 0 10-49-122.61v103a70.84 70.84 0 0049 19.61z"/></svg>