<svg id="Layer_1" data-name="Layer 1" xmlns="http://www.w3.org/2000/svg" viewBox="0 0 512 512"><defs><style>.cls-1{fill:none;stroke:#666;stroke-linecap:round;stroke-linejoin:round;stroke-width:8.5px;}</style></defs><title>009 Hot_1</title><path class="cls-1" d="M191,302.33V104.63a44.85,44.85,0,0,0-44.72-44.72h0a44.85,44.85,0,0,0-44.72,44.72v197.7a89.71,89.71,0,1,0,89.43,0Z"/><path class="cls-1" d="M165.49,338a13,13,0,0,1-7.55-11.81V107.67A11.66,11.66,0,0,0,146.31,96h0a11.66,11.66,0,0,0-11.63,11.63V326.18A13,13,0,0,1,127.13,338a46.31,46.31,0,1,0,38.37,0Z"/><line class="cls-1" x1="406.4" y1="211.13" x2="455.42" y2="211.13"/><line class="cls-1" x1="286.46" y1="379.72" x2="286.46" y2="329.95"/><line class="cls-1" x1="286.84" y1="91.95" x2="286.84" y2="42.17"/><line class="cls-1" x1="371.09" y1="295.65" x2="405.86" y2="330.42"/><line class="cls-1" x1="370.61" y1="127.25" x2="406.12" y2="91.74"/><path class="cls-1" d="M287,282.24a71.1,71.1,0,1,0-49-122.61v103A70.84,70.84,0,0,0,287,282.24Z"/></svg>