<svg version="1.1" id="Layer_1" xmlns="http://www.w3.org/2000/svg" x="0" y="0" viewBox="0 0 512 512" xml:space="preserve"><style>.st0{fill:none;stroke:#fff;stroke-width:16;stroke-linecap:round;stroke-linejoin:round}</style><path class="st0" d="M108.6 379.6l-42.7 58.7M144.9 410.3l-44 60M311.9 384.3l-44 61M365.6 379.6l-29.7 39.7M57.6 367.6l-18.7 24.7M275.2 354.1h85.1c62 0 112.8-50.8 112.8-112.8s-50.8-112.8-112.8-112.8h-1.9c-22.5-66.8-94.9-102.7-161.7-80.2-51.9 17.5-86.8 66.2-86.8 120.9 0 2.7.1 5.4.3 8.1-37.9 10.6-65.9 45.5-65.9 86.7 0 49.5 40.5 90 90 90h30.1"/><path class="st0" d="M296.2 164.9L252 277.6h82.8L176.2 481.3l52.3-127.2h-64.2l46.5-189.3h85.4m38.6 112.8"/></svg>