<?xml version="1.0" encoding="utf-8"?>
<!-- Generator: Adobe Illustrator 21.0.0, SVG Export Plug-In . SVG Version: 6.00 Build 0)  -->
<svg version="1.1" id="Layer_1" xmlns="http://www.w3.org/2000/svg" xmlns:xlink="http://www.w3.org/1999/xlink" x="0px" y="0px"
	 viewBox="0 0 512 512" style="enable-background:new 0 0 512 512;" xml:space="preserve">
<style type="text/css">
	.st0{fill:none;stroke:#666666;stroke-width:8.5;stroke-linecap:round;stroke-linejoin:round;}
</style>
<title>013 Mix Rainfall_1</title>
<line class="st0" x1="108.6" y1="379.6" x2="65.9" y2="438.3"/>
<line class="st0" x1="144.9" y1="410.3" x2="100.9" y2="470.3"/>
<line class="st0" x1="311.9" y1="384.3" x2="267.9" y2="445.3"/>
<line class="st0" x1="365.6" y1="379.6" x2="335.9" y2="419.3"/>
<line class="st0" x1="57.6" y1="367.6" x2="38.9" y2="392.3"/>
<path class="st0" d="M275.2,354.1h85.1c62,0,112.8-50.8,112.8-112.8l0,0c0-62-50.8-112.8-112.8-112.8h-1.9
	c-22.5-66.8-94.9-102.7-161.7-80.2c-51.9,17.5-86.8,66.2-86.8,120.9c0,2.7,0.1,5.4,0.3,8.1c-37.9,10.6-65.9,45.5-65.9,86.7
	c0,49.5,40.5,90,90,90h30.1"/>
<path class="st0" d="M296.2,164.9L252,277.6h82.8L176.2,481.3l52.3-127.2h-64.2l46.5-189.3H296.2 M334.8,277.6L334.8,277.6"/>
</svg>
