<svg id="Layer_1" data-name="Layer 1" xmlns="http://www.w3.org/2000/svg" viewBox="0 0 512 512"><defs><style>.cls-1{fill:none;stroke:#666;stroke-linecap:round;stroke-linejoin:round;stroke-width:8.5px}</style></defs><path class="cls-1" d="M256 147v218M306.91 96L256 146.91 205.09 96"/><path class="cls-1" d="M306.91 96L256 146.91 205.09 96M256 55v44M205.09 416L256 365.09 306.91 416"/><path class="cls-1" d="M205.09 416L256 365.09 306.91 416M256 457v-44M158.88 206.52l194.24 98.96M136.55 138l22.25 68.47-68.47 22.25"/><path class="cls-1" d="M136.55 138l22.25 68.47-68.47 22.25M76.91 164.75l39.2 19.97M375.45 374l-22.25-68.48 68.47-22.24"/><path class="cls-1" d="M375.45 374l-22.25-68.48 68.47-22.24M435.09 347.25l-39.2-19.97M353.12 206.52l-194.24 98.96M421.67 228.72l-68.47-22.25L375.45 138"/><path class="cls-1" d="M421.67 228.72l-68.47-22.25L375.45 138M435.09 164.75l-39.2 19.97M90.33 283.28l68.47 22.24L136.55 374"/><path class="cls-1" d="M90.33 283.28l68.47 22.24L136.55 374M76.91 347.25l39.2-19.97"/></svg>