<?xml version="1.0" encoding="utf-8"?>
<!-- Generator: Adobe Illustrator 21.0.0, SVG Export Plug-In . SVG Version: 6.00 Build 0)  -->
<svg version="1.1" id="Layer_1" xmlns="http://www.w3.org/2000/svg" xmlns:xlink="http://www.w3.org/1999/xlink" x="0px" y="0px"
	 viewBox="0 0 512 512" style="enable-background:new 0 0 512 512;" xml:space="preserve">
<style type="text/css">
	.st0{fill:none;stroke:#666666;stroke-width:8.5;stroke-linecap:round;stroke-linejoin:round;}
	.st1{fill:#666666;}
</style>
<title>015 Scattered Thundersorm_1</title>
<line class="st0" x1="39.3" y1="182.2" x2="85.8" y2="182.2"/>
<path class="st0" d="M199.4,247.4c-1.7,0.1-3.5,0.2-5.3,0.2c-36,0-65.2-29.2-65.2-65.2s29.2-65.2,65.2-65.2
	c32,0,59.3,23.3,64.4,54.9"/>
<line class="st0" x1="194.8" y1="72.8" x2="194.8" y2="27"/>
<line class="st0" x1="84.9" y1="72.4" x2="117.6" y2="105.1"/>
<line class="st0" x1="84.7" y1="292.1" x2="117" y2="259.8"/>
<line class="st0" x1="272" y1="105.3" x2="304.6" y2="72.6"/>
<path class="st1" d="M339.1,262.4L339.1,262.4z"/>
<g>
	<path class="st0" d="M322,398.8h63.6c46.3,0,84.3-37.9,84.3-84.3l0,0c0-46.3-37.9-84.3-84.3-84.3h-1.4
		c-16.8-49.9-70.9-76.7-120.8-59.9c-38.8,13.1-64.9,49.4-64.9,90.4c0,2,0.1,4,0.2,6c-28.3,7.9-49.3,34-49.3,64.8
		c0,37,30.3,67.2,67.2,67.2h22.5"/>
	<path class="st0" d="M337.7,257.4l-33,84.2h61.9L248,493.9l39.1-95h-48l34.7-141.4H337.7 M366.6,341.7L366.6,341.7"/>
</g>
</svg>
