<svg version="1.1" id="Layer_1" xmlns="http://www.w3.org/2000/svg" x="0" y="0" viewBox="0 0 512 512" xml:space="preserve"><style>.st0{fill:none;stroke:#fff;stroke-width:22px;stroke-linecap:round;stroke-linejoin:round}</style><path class="st0" d="M39.3 182.2h46.5M199.4 247.4c-1.7.1-3.5.2-5.3.2-36 0-65.2-29.2-65.2-65.2s29.2-65.2 65.2-65.2c32 0 59.3 23.3 64.4 54.9M194.8 72.8V27M84.9 72.4l32.7 32.7M84.7 292.1l32.3-32.3M272 105.3l32.6-32.7"/><path d="M339.1 262.4z" fill="#fff"/><path class="st0" d="M322 398.8h63.6c46.3 0 84.3-37.9 84.3-84.3 0-46.3-37.9-84.3-84.3-84.3h-1.4c-16.8-49.9-70.9-76.7-120.8-59.9-38.8 13.1-64.9 49.4-64.9 90.4 0 2 .1 4 .2 6-28.3 7.9-49.3 34-49.3 64.8 0 37 30.3 67.2 67.2 67.2h22.5"/><path class="st0" d="M337.7 257.4l-33 84.2h61.9L248 493.9l39.1-95h-48l34.7-141.4h63.9m28.9 84.2"/></svg>