<svg id="Layer_1" data-name="Layer 1" xmlns="http://www.w3.org/2000/svg" viewBox="0 0 512 512"><defs><style>.cls-1{fill:none;stroke:#fff;stroke-linecap:round;stroke-linejoin:round;stroke-width:22px}</style></defs><path class="cls-1" d="M380.67 132.52H379a114.47 114.47 0 00-223 36.57c0 2.44.09 4.85.24 7.25a81 81 0 00-59.1 77.76 81 81 0 0080.74 80.74h202.79c55.64 0 101.16-45.52 101.16-101.16-.01-55.68-45.53-101.16-101.16-101.16zM153.65 368.08l-80.85 81.1M259.21 364.4l-65.78 65.78M356.57 368.68l-61.5 61.5M88.24 333.06L37.9 383.4"/><circle class="cls-1" cx="72.44" cy="449.29" r="8.07"/><circle class="cls-1" cx="38.25" cy="383.75" r="8.07"/><circle class="cls-1" cx="194.02" cy="430.3" r="8.07"/><circle class="cls-1" cx="294.71" cy="430.3" r="8.07"/><circle class="cls-1" cx="183.57" cy="387.55" r="8.07"/><circle class="cls-1" cx="103.79" cy="367.61" r="8.07"/><circle class="cls-1" cx="291.86" cy="379.95" r="8.07"/><circle class="cls-1" cx="134.66" cy="436.47" r="8.07"/></svg>