<svg id="Layer_1" data-name="Layer 1" xmlns="http://www.w3.org/2000/svg" viewBox="0 0 512 512"><defs><style>.cls-1,.cls-2{fill:none;stroke:#666;stroke-linecap:round;stroke-linejoin:round;stroke-width:8.5px}.cls-1{fill-rule:evenodd}</style></defs><path class="cls-1" d="M239.51 216.26c35.33 13.31 56.59 13.07 72.18-8.07 11.38-15.43 10.59-36.91-3.86-49.52-14.77-12.89-35.1-10.31-43.22 1.7M220.93 268.1a198.68 198.68 0 0120.33 9.2c59.71 30.9 109.1 87.42 173.46 57.64 67-31 58.68-95.14 40.41-120.56-18.44-25.65-55.48-36.66-85.41-17.44M81 340.24c97.75-49.3 147.33-12.06 173.75 8.7 42 33 0 83-32 53"/><path class="cls-2" d="M128.91 144.5v103.47M153.07 120.3l-24.16 24.16-24.17-24.16"/><path class="cls-2" d="M153.07 120.3l-24.16 24.16-24.17-24.16M128.91 100.84v20.88M104.74 272.17l24.17-24.16 24.16 24.16"/><path class="cls-2" d="M104.74 272.17l24.17-24.16 24.16 24.16M128.91 291.63v-20.88M82.81 172.75L175 219.72M72.21 140.23l10.56 32.5-32.5 10.56"/><path class="cls-2" d="M72.21 140.23l10.56 32.5-32.5 10.56M43.91 152.93l18.6 9.48M185.6 252.24l-10.56-32.5 32.5-10.56"/><path class="cls-2" d="M185.6 252.24l-10.56-32.5 32.5-10.56M213.91 239.55l-18.61-9.49M175 172.75l-92.19 46.97M207.54 183.29l-32.5-10.56 10.56-32.5"/><path class="cls-2" d="M207.54 183.29l-32.5-10.56 10.56-32.5M213.91 152.93l-18.61 9.48M50.27 209.18l32.5 10.56-10.56 32.5"/><path class="cls-2" d="M50.27 209.18l32.5 10.56-10.56 32.5M43.91 239.55l18.6-9.49"/></svg>