<svg id="Layer_1" data-name="Layer 1" xmlns="http://www.w3.org/2000/svg" viewBox="0 0 512 512"><defs><style>.cls-1{fill:none;stroke:#666;stroke-linecap:round;stroke-linejoin:round;stroke-width:8.5px}</style></defs><path class="cls-1" d="M373.43 154.45h-1.61a108.6 108.6 0 00-211.51 34.69c0 2.31.08 4.61.22 6.88a76.89 76.89 0 00-56.09 73.77 76.82 76.82 0 0076.6 76.6h192.39c52.78 0 96-43.19 96-96-.03-52.75-43.22-95.94-96-95.94zM121.23 415l-16.45 16.44M158.17 378.05l-16.44 16.45M104.1 382.56L87.66 399M227.56 405.08l-16.45 16.45M174.39 408.69l-16.44 16.44M211.34 371.74l-16.45 16.45M323.98 405.08l-16.44 16.45M270.81 408.69l-16.44 16.44M307.76 371.74l-16.44 16.45M59.05 381.65L42.6 398.1M95.99 344.71l-16.44 16.44M364.53 411.39l-16.44 16.45M401.48 374.45l-16.45 16.44"/></svg>