<svg id="Layer_1" data-name="Layer 1" xmlns="http://www.w3.org/2000/svg" viewBox="0 0 512 512"><defs><style>.cls-1{fill:none;stroke:#666;stroke-linecap:round;stroke-linejoin:round;stroke-width:8.5px}</style></defs><path class="cls-1" d="M445.35 242.92h-47.44M286.68 131.33V84.59M398.81 130.89l-33.36 33.35M399.05 355.04l-33-33M208.01 164.49l-33.36-33.35M355.28 241.27a66.77 66.77 0 00-119.53-40.93l93.92 93.49a66.62 66.62 0 0025.61-52.56zM337.27 394.34h6.5M310.76 361.27h6.51M274.69 328.19h6.5M287.16 394.34h6.51M269.15 361.27h6.51M235.18 328.19h6.5M218.61 262.05h-6.5M243.03 295.12h6.5M217.54 361.27h6.51M295.61 427.41h6.5M185.67 328.19h6.5M173.46 262.05h-6.5M175.94 361.27h6.5M231.74 427.41h6.5M205.4 295.12h6.5M196.85 394.34h6.51M136.16 328.19h6.5M118.31 262.05h-6.51M156.75 394.34h6.5M197.87 427.41h6.51M147.77 295.12h6.51M102.72 361.27h6.5M96.65 328.19h6.5M73.15 262.05h-6.5M110.14 295.12h6.51M86.65 394.34h6.5M130.14 427.41h6.51M136.96 196.34h6.5M174.81 229.41h6.5M132.47 229.41h6.51M93.09 196.34h6.5M90.14 229.41h6.51"/></svg>