<svg id="Layer_1" data-name="Layer 1" xmlns="http://www.w3.org/2000/svg" viewBox="0 0 512 512"><defs><style>.cls-1{fill:none;stroke:#fff;stroke-linecap:round;stroke-linejoin:round;stroke-width:22px}</style></defs><path class="cls-1" d="M269.9 422.12l-45.58 45.58M215.82 422.12l-45.58 45.58M323.98 422.12L278.4 467.7M378.06 422.12l-45.58 45.58M51.2 190.02h43.67M206.82 250.58a61.21 61.21 0 1150.87-64.66M197.25 87.32V44.3M94.04 86.92l30.7 30.69M93.81 293.23l30.38-30.38M269.66 117.84l30.69-30.7"/><path class="cls-1" d="M438.4 265.95a75.57 75.57 0 00-53.71-22.33h-1.47a8.28 8.28 0 01-7.85-5.63 87.15 87.15 0 00-82.65-59.29h-.06a87.19 87.19 0 00-87.15 87.3c0 1.78.06 3.59.18 5.53a8.28 8.28 0 01-6 8.5 59.34 59.34 0 00-43.24 56.93 59.28 59.28 0 0059.08 59l169.2-.11a76 76 0 0053.67-129.9z"/></svg>