<svg id="Layer_1" data-name="Layer 1" xmlns="http://www.w3.org/2000/svg" viewBox="0 0 512 512"><defs><style>.cls-1{fill:none;stroke:#666;stroke-linecap:round;stroke-linejoin:round;stroke-width:8.5px;}</style></defs><title>023 Scattered Showers_1</title><line class="cls-1" x1="269.9" y1="422.12" x2="224.32" y2="467.7"/><line class="cls-1" x1="215.82" y1="422.12" x2="170.24" y2="467.7"/><line class="cls-1" x1="323.98" y1="422.12" x2="278.4" y2="467.7"/><line class="cls-1" x1="378.06" y1="422.12" x2="332.48" y2="467.7"/><line class="cls-1" x1="51.2" y1="190.02" x2="94.87" y2="190.02"/><path class="cls-1" d="M206.82,250.58a61.21,61.21,0,1,1,50.87-64.66"/><line class="cls-1" x1="197.25" y1="87.32" x2="197.25" y2="44.3"/><line class="cls-1" x1="94.04" y1="86.92" x2="124.74" y2="117.61"/><line class="cls-1" x1="93.81" y1="293.23" x2="124.19" y2="262.85"/><line class="cls-1" x1="269.66" y1="117.84" x2="300.35" y2="87.14"/><path class="cls-1" d="M438.4,265.95a75.57,75.57,0,0,0-53.71-22.33h-1.47a8.28,8.28,0,0,1-7.85-5.63,87.15,87.15,0,0,0-82.65-59.29h-.06A87.19,87.19,0,0,0,205.51,266c0,1.78.06,3.59.18,5.53a8.28,8.28,0,0,1-6,8.5,59.34,59.34,0,0,0-43.24,56.93,59.28,59.28,0,0,0,59.08,59h0l169.2-.11a76,76,0,0,0,53.67-129.9Z"/></svg>