<svg id="Layer_1" data-name="Layer 1" xmlns="http://www.w3.org/2000/svg" viewBox="0 0 512 512"><defs><style>.cls-1{fill:none;stroke:#666;stroke-linecap:round;stroke-linejoin:round;stroke-width:8.5px}</style></defs><path class="cls-1" d="M346.82 148h-1.69a114 114 0 00-222 36.42c0 2.43.08 4.84.23 7.23a80.71 80.71 0 00-58.89 77.44 80.65 80.65 0 0080.41 80.41h202c55.41 0 100.75-45.34 100.75-100.75-.07-55.44-45.4-100.75-100.81-100.75zM206.82 383.13l-58.46 58.46M137.45 383.13l-58.47 58.46M276.2 383.13l-58.47 58.46M345.57 383.13l-58.47 58.46M255.05 175.91v98.49"/><path class="cls-1" d="M278.05 152.88l-23 23-22.99-23"/><path class="cls-1" d="M278.05 152.88l-23 23-22.99-23M255.05 134.35v19.88M232.06 297.44l22.99-23 23 23"/><path class="cls-1" d="M232.06 297.44l22.99-23 23 23M255.05 315.96v-19.88M211.18 202.8l87.75 44.71M201.09 171.85l10.06 30.93-30.94 10.05"/><path class="cls-1" d="M201.09 171.85l10.06 30.93-30.94 10.05M174.15 183.93l17.71 9.03M309.01 278.46l-10.05-30.93 30.94-10.05"/><path class="cls-1" d="M309.01 278.46l-10.05-30.93 30.94-10.05M335.96 266.38l-17.71-9.03M298.93 202.8l-87.75 44.71M329.9 212.83l-30.94-10.05 10.05-30.93"/><path class="cls-1" d="M329.9 212.83l-30.94-10.05 10.05-30.93M335.96 183.93l-17.71 9.03M180.21 237.48l30.94 10.05-10.06 30.93"/><path class="cls-1" d="M180.21 237.48l30.94 10.05-10.06 30.93M174.15 266.38l17.71-9.03"/></svg>