<svg id="Layer_1" data-name="Layer 1" xmlns="http://www.w3.org/2000/svg" viewBox="0 0 512 512"><defs><style>.cls-1{fill:none;stroke:#fff;stroke-linecap:round;stroke-linejoin:round;stroke-width:16px}</style></defs><path class="cls-1" d="M197.53 297.46V115a41.38 41.38 0 00-41.26-41.26A41.38 41.38 0 00115 115v182.46a82.77 82.77 0 1082.52 0zM284.21 139.26v187.82M328.07 95.33l-43.86 43.86-43.87-43.86"/><path class="cls-1" d="M328.07 95.33l-43.86 43.86-43.87-43.86M284.21 60v37.91M271.28 340.86l12.93-13.71 43.86 43.86M284.21 406.34v-37.91M237.68 209.91l130.2 65.89M387.11 334.83l-19.16-58.99 58.99-19.17"/><path class="cls-1" d="M387.11 334.83l-19.16-58.99 58.99-19.17M438.5 311.79l-33.78-17.21M367.88 190.54l-130.2 66.75M426.94 209.67l-58.99-19.17 19.16-58.99"/><path class="cls-1" d="M426.94 209.67l-58.99-19.17 19.16-58.99M438.5 154.55l-33.78 17.21M175.47 328a13 13 0 01-7.55-11.81v-28.52A11.66 11.66 0 00156.3 276a11.66 11.66 0 00-11.63 11.63v28.52a13 13 0 01-7.56 11.85 46.31 46.31 0 1038.37 0z"/></svg>