<svg id="Layer_1" data-name="Layer 1" xmlns="http://www.w3.org/2000/svg" viewBox="0 0 512 512"><defs><style>.cls-1{fill:none;stroke:#666;stroke-linecap:round;stroke-linejoin:round;stroke-width:8.5px;}</style></defs><title>027 Smoke_1</title><path class="cls-1" d="M441.13,252.88A85,85,0,0,0,325.65,128.14a80,80,0,0,0-104,16h-3.34a73.59,73.59,0,0,0-115,33.88"/><path class="cls-1" d="M80.27,329A85,85,0,1,1,186.35,196.71a80,80,0,0,1,104,16h3.34a73.58,73.58,0,0,1,107,17.56"/><path class="cls-1" d="M378.91,227.64a89.06,89.06,0,0,0-60.62,23.71A84.08,84.08,0,0,0,209,268.17h-3.52a77.38,77.38,0,1,0-63.92,136.54A40.32,40.32,0,0,0,154,406.4h225a89.38,89.38,0,1,0,0-178.77Z"/></svg>