<svg id="Layer_1" data-name="Layer 1" xmlns="http://www.w3.org/2000/svg" viewBox="0 0 512 512"><defs><style>.cls-1{fill:none;stroke:#666;stroke-linecap:round;stroke-linejoin:round;stroke-width:8.5px}</style></defs><path class="cls-1" d="M441.13 252.88a85 85 0 00-115.48-124.74 80 80 0 00-104 16h-3.34a73.59 73.59 0 00-115 33.88"/><path class="cls-1" d="M80.27 329a85 85 0 11106.08-132.29 80 80 0 01104 16h3.34a73.58 73.58 0 01107 17.56"/><path class="cls-1" d="M378.91 227.64a89.06 89.06 0 00-60.62 23.71A84.08 84.08 0 00209 268.17h-3.52a77.38 77.38 0 10-63.92 136.54A40.32 40.32 0 00154 406.4h225a89.38 89.38 0 100-178.77z"/></svg>