<svg id="Layer_1" data-name="Layer 1" viewBox="0 0 350 350" xmlns="http://www.w3.org/2000/svg"><g fill="#fff"><path d="M209.3 50.8a7.5 7.5 0 0 0-12.08 8.88c54.57 74.27 66.03 123.54 66.03 151.8 0 27.7-8.27 52.8-23.3 70.69-17.51 20.86-42.96 31.44-75.64 31.44-73.04 0-98.95-55.02-98.95-102.13 0-52.23 28.1-103.23 51.68-136.83C142.9 37.8 169.15 13.24 169.41 13A7.5 7.5 0 0 0 159.21 2c-1.12 1.04-27.5 25.7-54.26 63.77-24.9 35.43-54.59 89.47-54.59 145.71 0 31.06 9.67 59.6 27.24 80.35 20.36 24.06 50.34 36.78 86.7 36.78 36.8 0 66.93-12.72 87.14-36.8 17.3-20.59 26.81-49.12 26.81-80.33 0-55.26-37.5-117.88-68.94-160.68Z"/><path d="m198.43 148.15-95.16 95.16a7.5 7.5 0 1 0 10.6 10.6l95.17-95.16a7.5 7.5 0 1 0-10.61-10.6Zm-6.47 59.75a24.13 24.13 0 0 0-24.1 24.1c0 13.3 10.81 24.11 24.1 24.11 13.3 0 24.11-10.81 24.11-24.1 0-13.3-10.81-24.11-24.1-24.11Zm0 33.21a9.12 9.12 0 0 1 0-18.21 9.12 9.12 0 0 1 0 18.21Zm-66.78-46.95c13.29 0 24.1-10.81 24.1-24.1 0-13.3-10.81-24.11-24.1-24.11a24.13 24.13 0 0 0-24.1 24.1c0 13.3 10.8 24.11 24.1 24.11Zm0-33.21a9.12 9.12 0 0 1 0 18.21 9.12 9.12 0 0 1 0-18.21Z"/></g></svg>
