<svg id="Layer_1" data-name="Layer 1" viewBox="0 0 512 512" xmlns="http://www.w3.org/2000/svg"><defs><style>.cls-1{fill:none;stroke:#fff;stroke-linecap:round;stroke-linejoin:round;stroke-width:16px;fill-rule:evenodd}</style></defs><path d="M342 24C332.8 25.2 326.6 26.7 319 29.7C290.1 41.1 271.1 64.4 264.5 96.2C264.1 98.2 263.2 99.1 261.2 99.5C236.9 104.5 221.3 115.8 211.5 135.5C202.2 154 203.1 177.9 213.7 195.9C221.5 209.1 234.1 219.2 249.5 224.7L257.5 227.5H448.5L456 225.1C478.4 218.1 495 203.9 504.6 183.5C510.3 171.3 511.5 165.7 511.5 151.5C511.4 137.4 509.8 130.4 503.9 118.5C498.168 106.804 489.532 96.7735 478.817 89.3677C468.102 81.9618 455.667 77.4282 442.7 76.2L434.5 75.5L430.5 68C425 57.6 408.6 41.2 398 35.4C380.5 25.9 360 21.7 342 24ZM371.5 44.5C392.1 50 408.7 64.2 417.8 84.3C422 93.4 422.7 93.8 435 94.4C450.2 95.1 460.9 98.8 471.3 107C479.701 113.686 486.077 122.576 489.715 132.678C493.353 142.779 494.109 153.693 491.9 164.2C487.8 184.2 470.2 202.1 449.5 207.5C440.6 209.8 266.4 209.8 257.5 207.5C242.5 203.6 230.1 191.5 225.4 176.1C222.3 166.2 224 151.7 229.3 141.4C235.7 129 253.4 118 266.9 118C273.4 118 278.6 116.3 280.3 113.7C281.1 112.5 282.2 107.4 282.8 102.5C284.8 85.8 290.2 74.6 301.9 63C312.8 52.2 325.3 45.6 339.4 43C346.4 41.8 364.2 42.6 371.5 44.5V44.5ZM82.3 89.2C78.5 90.2 76 93.4 76 97.3C76 98.9 81.2 119.7 87.5 143.5C93.8 167.3 99 187.2 99 187.7C99 188.2 78.9 191.2 54.3 194.4C29.6 197.7 8.10002 200.9 6.30002 201.6C4.60002 202.3 2.40002 204 1.50002 205.4C-1.99998 210.7 2.50002 219 8.90002 219C11.6 219 108.7 206.3 112.8 205.4C116.7 204.6 120 200.5 120 196.7C120 192.4 94.4 95.3 92.5 92.4C90.6 89.5 86.3 88.1 82.3 89.2V89.2Z" fill="white"/><path d="M143.9 128.9C142.3 130.5 141 132.9 141 134.2C141.1 135.5 146.4 156.5 152.9 181C159.5 205.5 164.7 225.6 164.7 225.6C164.6 225.7 145.2 228.3 121.5 231.4C97.9 234.5 76.4 237.5 73.7 238.1C68.1 239.4 66 241.9 66 247.3C66 252.5 69.5 256 74.7 256C81.8 256 177.5 243 180.6 241.6C182.4 240.8 184.2 238.9 185 237C186.2 234.1 185.4 230.3 173 183.7C165.7 156.1 159.1 132.3 158.3 130.8C155.5 125.2 148.6 124.3 143.9 128.9V128.9ZM365.8 281.5C340.1 284.9 317.5 288.1 315.6 288.4C311.5 289.2 308 293.1 308 297C308 298.5 314 322.3 321.3 349.9C336 405.1 336 405 343.2 405C348.4 405 352 401.5 352 396.4C352 394.4 346.8 373.2 340.4 349.3C334.1 325.4 329 305.7 329.2 305.5C329.4 305.3 350.1 302.4 375.3 299.1C400.5 295.7 422 292.5 423 292C428.3 289.1 429.4 282.8 425.4 278.1C423.1 275.3 422.3 275 417.7 275.1C414.8 275.2 391.5 278 365.8 281.5V281.5ZM146.5 284.9C117.5 289.6 94.1 305.6 80.9 329.7L77.5 335.9L72 336.5C50.2 338.9 33.9 346.7 20.8 360.9C10.2 372.4 4.50005 383.6 1.40005 399C-5.39995 433.1 14.9 469.7 48.1 482.9C62.7 488.6 59.7 488.5 159.5 488.5C262.3 488.5 256.5 488.9 272 481.3C282 476.4 295.1 463.5 299.7 454C304.7 443.7 306.1 438.2 306.7 427.9C308.5 396.8 288 369.2 257.5 361.5C254.3 360.7 250.8 360 249.9 360C248 360 247.6 359 246.5 352.5C246.1 350.3 244.7 345.4 243.4 341.6C234.5 315.9 212.4 295.6 184.4 287.5C174.7 284.6 156 283.4 146.5 284.9ZM177.4 305C198 310.2 214.2 323.3 223 341.5C227.1 350.1 228.6 355.6 229.6 366.3C230.5 375.9 232.1 377.2 244.8 378.6C265.6 380.8 279.7 391.9 286.7 411.4C288.9 417.7 288.6 430.8 286.1 438.2C281.8 450.9 271.1 462 258.3 467.2L252.5 469.5H66.5L59.3 467.2C50.7 464.5 38.7 456.7 33 450.2C27.8 444.1 21.5 431.7 20 424.3C18.1 415.4 19.2 400.9 22.3 392.8C31.2 369.5 52.8 355 78.4 355C84.1 355 87.2 354.5 88.8 353.5C90 352.6 93 347.8 95.4 342.7C104.9 323.1 120.2 310.5 141.1 305.1C151.3 302.4 167.1 302.3 177.4 305V305Z" fill="white"/><path d="M429.7 337.5C378.5 344.4 378.3 344.4 375.8 346.7C371.9 350.2 372.4 352.9 386.4 405.5C398.3 450.2 400.3 456.8 402.5 458.7C407.1 462.7 413.7 461.4 416.5 456C418.4 452.4 419.1 456 405.1 403.1C399 380.3 394.2 361.5 394.3 361.3C394.5 361.2 415.1 358.3 440.1 355C465 351.7 486.3 348.7 487.2 348.4C492.8 346.7 494.8 337.7 490.5 333.5C487.1 330 484.2 330.2 429.7 337.5V337.5Z" fill="white"/></svg>
